#N canvas 1335 213 1480 832 10;
#X obj 16 18 loadbang;
#X msg 16 40 \; pd dsp 1;
#N canvas 1716 376 1038 759 send_receive 1;
#X obj 238 128 netreceive -u -b;
#X msg 238 81 listen 8888;
#X msg 266 155 connect localhost 6666;
#X obj 238 186 netsend -u -b;
#X obj 119 153 bng 18 250 50 0 empty empty empty 0 -9 0 10 #fcfcfc #000000 #000000;
#X obj 174 182 bng 18 250 50 0 empty empty empty 0 -9 0 10 #ffffff #00ff04 #000000;
#X obj 204 316 s MSG;
#X obj 204 246 oscparse;
#X obj 204 271 list trim;
#X text 102 130 connect;
#X connect 0 0 3 0;
#X connect 0 0 5 0;
#X connect 0 0 7 0;
#X connect 1 0 0 0;
#X connect 2 0 3 0;
#X connect 4 0 1 0;
#X connect 4 0 2 0;
#X connect 7 0 8 0;
#X connect 8 0 6 0;
#X coords 0 -1 1 1 111 111 1 100 100;
#X restore 38 252 pd send_receive;
#N canvas 1695 941 1126 757 direct_control 0;
#X obj 329 882 list trim;
#X obj 329 855 list prepend send;
#X msg 491 918 disconnect;
#X obj 329 948 netsend -u -b;
#X obj 131 784 oscformat source azim;
#X floatatom 176 696 5 0 0 0 - - - 0;
#X obj 131 750 pack i f;
#X msg 131 728 0;
#X floatatom 395 700 5 0 0 0 - - - 0;
#X obj 350 754 pack i f;
#X obj 350 788 oscformat source elev;
#X floatatom 604 699 5 0 0 0 - - - 0;
#X obj 559 753 pack i f;
#X obj 559 787 oscformat source dist;
#X text 489 876 always connect first;
#X text 106 663 control the azimuth (-pi...pi);
#X text 337 666 control the azimuth (-pi...pi);
#X text 555 667 control the distance (0.1...10);
#X msg 350 732 0;
#X msg 561 731 0;
#X msg 492 894 connect localhost 6666;
#X connect 0 0 3 0;
#X connect 1 0 0 0;
#X connect 2 0 3 0;
#X connect 4 0 1 0;
#X connect 5 0 6 1;
#X connect 5 0 7 0;
#X connect 6 0 4 0;
#X connect 7 0 6 0;
#X connect 8 0 18 0;
#X connect 8 0 9 1;
#X connect 9 0 10 0;
#X connect 10 0 1 0;
#X connect 11 0 19 0;
#X connect 11 0 12 1;
#X connect 12 0 13 0;
#X connect 13 0 1 0;
#X connect 18 0 9 0;
#X connect 19 0 12 0;
#X connect 20 0 3 0;
#X coords 0 -1 1 1 140 58 1 100 100;
#X restore 273 29 pd direct_control;
#N canvas 1567 1111 1930 1373 FM_Synth 0;
#X obj 287 432 osc~ 1111;
#X obj 287 347 osc~ 100;
#X obj 287 393 +~;
#X floatatom 457 377 5 0 0 0 - - - 0;
#X floatatom 287 298 5 0 0 0 - - - 0;
#X obj 435 90 route source;
#X obj 435 113 route azim;
#X obj 435 136 unpack i f;
#X floatatom 490 180 5 0 0 0 - - - 0;
#X obj 490 202 * 100;
#X obj 230 216 unpack i f;
#X floatatom 287 247 5 0 0 0 - - - 0;
#X obj 287 269 * 100;
#X obj 230 193 route elev;
#X obj 434 38 r MSG;
#X obj 287 370 *~ 1000;
#X obj 287 547 outlet~;
#X obj 372 310 tgl 18 0 empty empty empty 0 -9 0 10 #fcfcfc #000000 #000000 0 1;
#X obj 366 253 loadbang;
#X msg 366 276 0;
#X obj 287 477 *~;
#X obj 287 455 *~ 0.11;
#X connect 0 0 21 0;
#X connect 1 0 15 0;
#X connect 2 0 0 0;
#X connect 3 0 2 1;
#X connect 4 0 1 0;
#X connect 5 0 6 0;
#X connect 5 0 13 0;
#X connect 6 0 7 0;
#X connect 7 1 8 0;
#X connect 8 0 9 0;
#X connect 9 0 3 0;
#X connect 10 1 11 0;
#X connect 11 0 12 0;
#X connect 12 0 4 0;
#X connect 13 0 10 0;
#X connect 14 0 5 0;
#X connect 15 0 2 0;
#X connect 17 0 20 1;
#X connect 18 0 19 0;
#X connect 19 0 17 0;
#X connect 20 0 16 0;
#X connect 21 0 20 0;
#X coords 0 -1 1 1 113 68 1 100 100;
#X restore 300 276 pd FM_Synth;
#X text 270 9 Leftover for debugging.;
#X text 36 208 Get incoming messages and pass them on, f 15;
#X text 299 246 A synth example;
#N canvas 0 88 3840 2006 NoiseFilter 0;
#X obj 226 233 noise~;
#X obj 226 256 samphold~;
#X obj 226 348 bob~, f 55;
#X obj 226 371 outlet~;
#X obj 280 209 hsl 153 18 1 48000 1 0 empty empty empty -2 -9 0 10 #fcfcfc #000000 #000000 0 1;
#X obj 389 277 pack f 50;
#X obj 389 296 line~;
#X obj 392 256 hsl 153 18 1 24000 1 0 empty empty empty -2 -9 0 10 #fcfcfc #000000 #000000 0 1;
#X obj 277 233 phasor~ 48000;
#X obj 553 297 sig~;
#X obj 556 256 hsl 153 18 0 4 0 0 empty empty empty -2 -9 0 10 #fcfcfc #000000 #000000 0 1;
#X obj 220 100 r MSG;
#X obj 220 120 route source;
#X obj 220 184 unpack i f;
#X obj 220 162 route samplerate;
#X obj 332 184 unpack i f;
#X obj 332 162 route cutofffrequency;
#X obj 496 184 unpack i f;
#X obj 496 162 route resonance;
#X connect 0 0 1 0;
#X connect 1 0 2 0;
#X connect 2 0 3 0;
#X connect 4 0 8 0;
#X connect 5 0 6 0;
#X connect 6 0 2 1;
#X connect 7 0 5 0;
#X connect 8 0 1 1;
#X connect 9 0 2 2;
#X connect 10 0 9 0;
#X connect 11 0 12 0;
#X connect 12 0 14 0;
#X connect 12 0 16 0;
#X connect 12 0 18 0;
#X connect 13 1 4 0;
#X connect 14 0 13 0;
#X connect 15 1 7 0;
#X connect 16 0 15 0;
#X connect 17 1 10 0;
#X connect 18 0 17 0;
#X coords 0 -1 1 1 116 68 1 100 100;
#X restore 431 276 pd NoiseFilter;
#X obj 432 347 dac~ 1;
#X connect 0 0 1 0;
#X connect 8 0 9 0;
